<?xml version="1.0" encoding="UTF-8" standalone="no"?>
<!-- Created with Inkscape (http://www.inkscape.org/) -->

<svg
   version="1.1"
   id="svg740"
   width="880"
   height="880"
   viewBox="0 0 880 880"
   sodipodi:docname="tent-in-forest-publicdomainvectors.org.svg"
   inkscape:version="1.2 (dc2aedaf03, 2022-05-15)"
   xmlns:inkscape="http://www.inkscape.org/namespaces/inkscape"
   xmlns:sodipodi="http://sodipodi.sourceforge.net/DTD/sodipodi-0.dtd"
   xmlns="http://www.w3.org/2000/svg"
   xmlns:svg="http://www.w3.org/2000/svg">
  <defs
     id="defs744">
    <clipPath
       clipPathUnits="userSpaceOnUse"
       id="clipPath768">
      <path
         d="M 0,660 H 660 V 0 H 0 Z"
         id="path766" />
    </clipPath>
  </defs>
  <sodipodi:namedview
     id="namedview742"
     pagecolor="#ffffff"
     bordercolor="#000000"
     borderopacity="0.25"
     inkscape:showpageshadow="2"
     inkscape:pageopacity="0.0"
     inkscape:pagecheckerboard="0"
     inkscape:deskcolor="#d1d1d1"
     showgrid="false"
     inkscape:zoom="0.95113636"
     inkscape:cx="440.52569"
     inkscape:cy="440.52569"
     inkscape:window-width="1920"
     inkscape:window-height="1017"
     inkscape:window-x="-8"
     inkscape:window-y="-8"
     inkscape:window-maximized="1"
     inkscape:current-layer="g748">
    <inkscape:page
       x="0"
       y="0"
       id="page746"
       width="880"
       height="880" />
  </sodipodi:namedview>
  <g
     id="g748"
     inkscape:groupmode="layer"
     inkscape:label="Page 1"
     transform="matrix(1.3333333,0,0,-1.3333333,0,880)">
    <path
       d="m 0.392,1 h 659.22 V 660 H 0.392 Z"
       style="fill:#c5c9ad;fill-opacity:1;fill-rule:nonzero;stroke:none"
       id="path750" />
    <path
       d="m 602.126,140.957 h 10.278 V 660 h -10.278 z m -81.295,0 h 14.951 V 660 h -14.951 z m -161.655,0 h 17.07 V 660 h -17.07 z m -106.526,0 h 16.137 V 660 H 252.65 Z m -68.214,0 h 8.662 V 660 h -8.662 z m -93.442,0 h 6.541 V 660 h -6.541 z"
       style="fill:#babf9f;fill-opacity:1;fill-rule:nonzero;stroke:none"
       id="path752" />
    <g
       id="g754"
       transform="translate(301.149,291.3111)">
      <path
         d="m 0,0 56.624,-150.354 h 301.84 v 288.668 z"
         style="fill:#dde0c9;fill-opacity:1;fill-rule:nonzero;stroke:none"
         id="path756" />
    </g>
    <g
       id="g758"
       transform="translate(602.126,407.4434)">
      <path
         d="M 0,0 10.278,3.966 V -266.486 H 0 Z m -81.295,-31.368 14.95,5.769 v -240.887 h -14.95 z m -161.655,-62.375 17.07,6.587 v -179.33 h -17.07 z"
         style="fill:#d2d6b8;fill-opacity:1;fill-rule:evenodd;stroke:none"
         id="path760" />
    </g>
    <g
       id="g762">
      <g
         id="g764"
         clip-path="url(#clipPath768)">
        <g
           id="g770"
           transform="translate(212.001,660.2207)">
          <path
             d="m 0,0 c 0,-44.322 -0.006,-88.645 0,-132.966 0,-2.254 -0.187,-8.888 -0.843,-10.902 -1.291,-3.973 -12.238,13.68 -12.814,14.581 -2.509,3.929 -4.399,7.425 -6.643,11.476 -3.769,6.806 -4.631,9.797 -6.878,17.205 -0.828,2.734 -4.22,16.324 -6.475,17.19 -2.315,0.89 -0.63,-4.724 -0.424,-5.525 1.47,-5.691 2.959,-11.376 4.409,-17.073 1.824,-7.166 3.406,-10.332 6.477,-16.864 3.14,-6.677 6.231,-13.374 9.289,-20.09 2.682,-5.891 4.095,-11.155 6.129,-17.205 1.201,-3.569 2.661,-7.062 3.832,-10.544 2.659,-7.913 3.945,-11.714 3.941,-20.226 -0.051,-109.439 0,-218.881 0,-328.321 h 32.705 v 228.754 c 0,4.971 -0.286,11.59 0.308,16.363 0.474,3.826 0.564,7.346 0.955,11.059 0.45,4.28 3.522,11.555 5.186,15.809 2.505,6.397 3.306,10.721 4.776,17.276 1.493,6.656 10.366,16.962 14.615,22.394 9.896,12.645 8.979,24.291 9.783,39.35 0.06,1.172 0.697,5.876 -0.384,6.312 -1.72,0.693 -2.281,-3.83 -2.409,-4.844 -1.755,-13.909 -0.085,-25.448 -10.206,-36.939 -5.597,-6.353 -11.548,-12.184 -16.913,-18.811 -0.758,-0.939 -4.208,-6.343 -5.128,-3.563 -0.297,0.894 -0.58,12.082 -0.583,13.735 -0.152,70.776 0,141.589 0,212.369 z m 94.377,0 h 24.699 c 0,-54.615 0.008,-109.231 0,-163.846 -0.002,-6.631 1.651,-6.463 6.05,-2.131 4.295,4.231 7.533,9.462 10.338,14.76 1.777,3.36 3.746,6.412 5.501,9.852 2.26,4.428 4.328,8.69 6.718,13.09 1.94,3.575 3.443,7.436 5.094,11.181 1.884,4.275 2.578,8.456 4.269,12.506 0.334,0.795 0.904,2.165 1.808,2.423 2.385,0.681 0.455,-4.96 0.167,-6.189 -1.147,-4.919 -2.086,-7.873 -3.929,-12.543 -1.352,-3.428 -2.21,-6.174 -3.854,-9.576 -3.174,-6.569 -5.583,-13.24 -8.756,-19.839 -1.8,-3.748 -2.938,-7.44 -4.808,-11.287 -1.683,-3.453 -3.088,-6.49 -4.941,-9.927 -3.169,-5.88 -5.315,-10.345 -9.438,-15.816 -2.5,-3.317 -4.235,-4.98 -4.219,-9.272 0.159,-44.719 0,-89.502 0,-134.227 V -519.264 H 94.377 c 0,119.943 -0.05,239.887 0,359.83 0.005,9.698 -1.442,11.809 -4.59,20.522 -1.51,4.178 -2.915,8.264 -4.476,12.442 -1.39,3.722 -2.353,7.005 -3.924,10.747 -2.715,6.474 -4.622,12.836 -6.249,19.654 -0.75,3.146 -1.888,6.43 -2.716,9.65 -0.63,2.451 -3.635,12.005 -2.709,13.808 0.948,1.845 2.712,-0.537 3.233,-1.564 2.238,-4.403 3.996,-11.379 5.961,-16.341 2.571,-6.492 4.94,-14.405 9.463,-19.879 3.268,-3.956 5.738,-3.829 5.914,1.567 0.3,9.194 0.093,18.917 0.093,28.166 z m 153.247,0 h 25.229 c 0,-30.012 -0.015,-60.026 0.009,-90.039 0.007,-7.118 0.786,-13.721 0.322,-20.861 -0.098,-1.498 -0.244,-13.204 0.835,-13.627 1.233,-0.482 2.086,5.832 2.3,6.825 0.665,3.065 1.492,6.134 2.172,9.254 0.723,3.322 1.542,6.342 2.193,9.736 1.177,6.132 3.318,11.47 4.214,17.894 0.44,3.145 1.168,15.321 2.337,17.197 0.994,1.601 1.849,0.465 1.914,-1.08 0.131,-3.05 -0.275,-8.358 -0.465,-11.548 -0.436,-7.273 -1.393,-11.861 -2.985,-18.881 -0.744,-3.275 -0.957,-6.872 -1.541,-10.268 -0.644,-3.754 -1.089,-7.985 -1.501,-11.804 -0.425,-3.914 -0.234,-8.552 -0.51,-12.663 -0.351,-5.271 -1.107,-11.864 -2.265,-16.947 -1.561,-6.841 -5.443,-13.551 -6.816,-20.21 -0.472,-2.29 -0.213,-13.182 -0.213,-16.358 v -335.884 h -25.229 c 0,144.807 -0.155,289.629 0,434.432 0.009,9.113 -4.698,24.611 -7.35,33.562 -1.326,4.478 -1.692,8.272 -3.374,12.908 -1.385,3.822 -2.45,7.043 -4.081,10.844 -0.494,1.151 -3.754,8.139 -0.336,8.096 3.826,-0.05 11.622,-17.233 13.653,-14.048 0.615,0.964 0.99,5.422 1.203,6.845 0.566,3.796 0.285,10.563 0.285,14.652 z m 160.722,0 h 18.688 v -519.264 h -18.688 z m -603.641,0 h 13.082 v -519.264 h -13.082 z"
             style="fill:#a6ab87;fill-opacity:1;fill-rule:evenodd;stroke:none"
             id="path772" />
        </g>
        <g
           id="g774"
           transform="translate(620.3467,414.4736)">
          <path
             d="M 0,0 18.688,7.211 V -273.517 H 0 Z m -160.722,-62.015 25.23,9.735 v -221.237 h -25.23 z m -153.247,-59.13 24.699,9.53 v -91.018 l -24.699,65.586 z"
             style="fill:#babf9d;fill-opacity:1;fill-rule:evenodd;stroke:none"
             id="path776" />
        </g>
        <g
           id="g778"
           transform="translate(317.0347,324.9121)">
          <path
             d="m 0,0 h -214.918 l 90.981,-183.955 H 90.982 Z"
             style="fill:#d46a00;fill-opacity:1;fill-rule:evenodd;stroke:none"
             id="path780" />
        </g>
        <g
           id="g782"
           transform="translate(357.7734,140.957)">
          <path
             d="M 0,0 H 50.243 L -29.329,160.887 -56.624,150.354 Z"
             style="fill:#e67707;fill-opacity:1;fill-rule:evenodd;stroke:none"
             id="path784" />
        </g>
        <g
           id="g786"
           transform="translate(285.2651,324.9121)">
          <path
             d="M 0,0 -123.938,-183.955 H 90.981 Z"
             style="fill:#ad5700;fill-opacity:1;fill-rule:evenodd;stroke:none"
             id="path788" />
        </g>
        <g
           id="g790"
           transform="translate(102.1167,324.9121)">
          <path
             d="m 0,0 h 214.918 l -90.98,-183.955 H -90.981 Z"
             style="fill:#d46a00;fill-opacity:1;fill-rule:evenodd;stroke:none"
             id="path792" />
        </g>
        <g
           id="g794"
           transform="translate(301.1494,292.7939)">
          <path
             d="M 0,0 V -151.837 H 22.551 Z"
             style="fill:#ffea47;fill-opacity:1;fill-rule:evenodd;stroke:none"
             id="path796" />
        </g>
        <g
           id="g798"
           transform="translate(297.1782,317.7891)">
          <path
             d="M 0,0 49.883,-146.59 26.522,-176.832 Z"
             style="fill:#d46a00;fill-opacity:1;fill-rule:evenodd;stroke:none"
             id="path800" />
        </g>
        <g
           id="g802"
           transform="translate(317.0347,324.9121)">
          <path
             d="m 0,0 -236.317,-183.955 h -69.582 L -214.918,0 Z"
             style="fill:#c96500;fill-opacity:1;fill-rule:evenodd;stroke:none"
             id="path804" />
        </g>
        <g
           id="g806"
           transform="translate(399.1504,407.3779)">
          <path
             d="M 0,0 7.21,-266.421 H -0.701 Z"
             style="fill:#ffea47;fill-opacity:1;fill-rule:evenodd;stroke:none"
             id="path808" />
        </g>
        <g
           id="g810"
           transform="translate(543.7266,407.3779)">
          <path
             d="m 0,0 6.858,-266.421 h -7.91 z"
             style="fill:#ffea47;fill-opacity:1;fill-rule:evenodd;stroke:none"
             id="path812" />
        </g>
        <g
           id="g814"
           transform="translate(113.8892,660.2207)">
          <path
             d="m 0,0 h 56.065 c 0,-31.779 -0.236,-63.736 0.01,-95.494 0.039,-5.103 0.18,-13.224 7.348,-6.925 6.493,5.705 13.316,22.016 16.213,30.342 3.209,9.223 5.965,16.747 8.576,26.289 0.556,2.03 3.419,14.115 7.109,12.327 2.671,-1.295 -0.018,-11.525 -0.524,-14.108 -2.171,-11.054 -5.305,-22.024 -8.11,-32.968 -3.698,-14.429 -9.804,-31.203 -15.567,-44.935 -2.466,-5.876 -4.856,-10.583 -7.055,-16.718 -1.844,-5.147 -3.808,-10.257 -5.645,-15.365 -3.042,-8.463 -2.355,-11.376 -2.355,-20.128 0,-29.075 -0.156,-58.235 0.002,-87.299 0.035,-6.555 1.065,-10.885 8.332,-6.143 6.071,3.963 6.769,16.542 13.767,16.656 5.152,0.085 3.76,-8.803 3.603,-12.251 -0.522,-11.54 -2.228,-13.52 -8.466,-22.962 -4.406,-6.669 -9.397,-13.632 -13.53,-20.389 -4.794,-7.836 -3.708,-12.835 -3.708,-21.671 v -220.82 H 0 c 0,124.752 0.052,249.504 0,374.255 -0.003,8.028 -1.602,15.315 -2.257,23.273 -0.301,3.647 -0.715,6.976 -1.099,10.569 -0.387,3.62 -0.655,5.656 -1.494,9.248 -0.845,3.616 -1.67,7.345 -2.484,10.974 -1.549,6.913 -2.556,14.965 -3.329,22.016 -0.81,7.383 -0.381,14.431 -1.322,21.77 -0.281,2.193 -1.824,11.572 -0.296,12.878 2.777,2.377 4.394,-9.513 4.644,-10.82 0.784,-4.089 1.27,-7.148 1.763,-11.3 0.357,-2.999 1.607,-11.595 3.39,-13.713 0.621,-0.739 1.412,0.335 1.63,1.087 0.633,2.184 0.885,18.031 0.833,20.918 -0.074,4.208 -0.165,8.046 -0.036,12.271 C 0.191,-60.982 0,-52.312 0,-44.104 Z m 285.261,0 h 24.97 c 0,-64.874 0.052,-129.752 0,-194.625 -0.003,-2.234 -0.256,-7.332 3.01,-7.356 3.461,-0.026 4.112,2.318 5.31,2.184 0.595,-1.72 -4.389,-11.69 -5.203,-14.13 -3.636,-10.905 -3.117,-17.323 -3.117,-28.566 v -297.92 h -24.97 v 403.735 c 0,5.39 -0.683,7.99 -3.855,12.472 -2.367,3.344 -9.381,10.719 -12.513,13.509 -7.386,6.581 -10.415,8.989 -16.031,17.746 -4.693,7.316 -6.808,10.854 -9.252,19.444 -0.947,3.33 -2.471,6.593 -3.575,9.978 -2.807,8.604 -2.622,15.351 -3.683,24.099 -0.176,1.456 -1.382,8.905 -0.894,9.753 0.602,1.049 1.556,-0.186 1.829,-0.827 1.58,-3.718 2.553,-16.813 3.28,-21.649 1.026,-6.829 2.593,-10.521 5.315,-16.813 1.965,-4.543 2.668,-8.213 5.372,-12.671 3.379,-5.571 9.911,-13.802 15.408,-17.288 2.345,-1.487 15.768,-9.508 17.995,-6.477 0.949,1.291 0.604,8.921 0.604,10.924 z m 144.576,0 h 49.524 c 0,-60.084 -0.086,-120.181 -10e-4,-180.262 0.003,-1.849 0.123,-4.907 2.923,-4.2 4.9,1.236 11.976,13.955 14.792,18.436 3.002,4.783 5.586,11.61 7.142,17.016 1.647,5.721 3.319,11.002 4.515,16.868 1.289,6.311 2.848,13.732 4.602,19.86 1.362,4.755 2.284,7.358 2.901,12.461 0.234,1.93 0.838,12.715 2.502,13.387 1.671,0.676 0.798,-4.332 0.729,-5.209 -0.601,-7.812 -0.773,-12.311 -2.945,-20.019 -1.74,-6.176 -3.217,-14.463 -4.229,-20.81 -1.073,-6.752 -2.783,-13.617 -4.33,-20.306 -1.646,-7.129 -4.064,-13.109 -7.322,-19.632 -2.928,-5.862 -5.085,-11.506 -8.332,-17.375 -2.898,-5.237 -5.709,-9.087 -8.95,-14.016 -4.904,-7.461 -3.997,-10.872 -3.997,-19.32 v -312.62 h -49.524 c 0,119.329 -0.137,238.673 0,358 0.006,5.683 -1.399,10.561 -3.112,15.943 -1.91,6.008 -4.723,11.443 -6.642,17.652 -2.506,8.11 -4.688,16.302 -7.265,24.445 -2.388,7.541 -4.278,14.866 -4.959,22.773 -0.306,3.555 -0.755,7.194 -1.095,10.785 -0.488,5.13 -0.832,8.676 -1.985,13.709 -1.529,6.667 -1.886,9.713 -4.888,16.069 -0.8,1.694 -4.213,8.246 -3.569,9.704 0.708,1.606 2.793,-3.595 3.057,-4.139 3.664,-7.504 5.134,-9.9 7.178,-18.407 1.026,-4.274 1.935,-7.413 2.489,-11.837 0.764,-6.085 1.735,-12.379 2.802,-18.421 1.42,-8.057 8.532,-23.667 12.879,-30.849 1.663,-2.749 4.538,-6.423 4.945,-0.779 0.404,5.595 0.165,12.55 0.165,18.272 z M -58.869,0 h 20.557 v -578.724 h -20.557 c 0,130.491 -0.156,261.001 0,391.49 0.01,7.307 -2.233,11.331 -4.404,18.07 -1.943,6.029 -3.568,11.823 -5.683,17.833 -1.987,5.646 -3.811,11.852 -5.451,17.618 -1.282,4.512 -1.966,10.477 -2.772,15.224 -0.673,3.95 -1.157,7.783 -1.902,11.768 -0.9,4.813 -1.367,10.575 -1.962,15.529 -0.124,1.036 -1.257,9.029 -0.986,9.432 0.613,0.911 1.586,-1.075 1.742,-1.52 1.108,-3.151 2.24,-13.712 2.809,-17.776 0.625,-4.456 1.813,-9.187 2.643,-13.696 1.012,-5.51 2.664,-13.919 4.661,-18.937 1.544,-3.879 5.695,-14.209 8.758,-16.593 2.768,-2.155 2.547,11.502 2.547,12.22 -0.005,46.021 0,92.042 0,138.062"
             style="fill:#60663a;fill-opacity:1;fill-rule:evenodd;stroke:none"
             id="path816" />
        </g>
        <path
           d="m 0.392,1 h 659.22 V 140.957 H 0.392 Z"
           style="fill:#4a4f27;fill-opacity:1;fill-rule:evenodd;stroke:none"
           id="path818" />
      </g>
    </g>
  </g>
</svg>
